<mxfile host="app.diagrams.net" modified="2021-09-29T09:38:12.331Z" agent="5.0 (Macintosh; Intel Mac OS X 10_15_7) AppleWebKit/537.36 (KHTML, like Gecko) Chrome/94.0.4606.61 Safari/537.36" etag="shUNLxXJ7eDkQ2pOpImR" version="15.3.7" type="github">
  <diagram id="C5RBs43oDa-KdzZeNtuy" name="Page-1">
    <mxGraphModel dx="946" dy="551" grid="1" gridSize="10" guides="1" tooltips="1" connect="1" arrows="1" fold="1" page="1" pageScale="1" pageWidth="827" pageHeight="1169" math="0" shadow="0">
      <root>
        <mxCell id="WIyWlLk6GJQsqaUBKTNV-0" />
        <mxCell id="WIyWlLk6GJQsqaUBKTNV-1" parent="WIyWlLk6GJQsqaUBKTNV-0" />
        <mxCell id="zkfFHV4jXpPFQw0GAbJ--0" value="Human" style="swimlane;fontStyle=2;align=center;verticalAlign=top;childLayout=stackLayout;horizontal=1;startSize=26;horizontalStack=0;resizeParent=1;resizeLast=0;collapsible=1;marginBottom=0;rounded=0;shadow=0;strokeWidth=1;" parent="WIyWlLk6GJQsqaUBKTNV-1" vertex="1">
          <mxGeometry width="180" height="320" as="geometry">
            <mxRectangle x="230" y="140" width="160" height="26" as="alternateBounds" />
          </mxGeometry>
        </mxCell>
        <mxCell id="zkfFHV4jXpPFQw0GAbJ--1" value="-name:String" style="text;align=left;verticalAlign=top;spacingLeft=4;spacingRight=4;overflow=hidden;rotatable=0;points=[[0,0.5],[1,0.5]];portConstraint=eastwest;" parent="zkfFHV4jXpPFQw0GAbJ--0" vertex="1">
          <mxGeometry y="26" width="180" height="26" as="geometry" />
        </mxCell>
        <mxCell id="zkfFHV4jXpPFQw0GAbJ--2" value="-age:int" style="text;align=left;verticalAlign=top;spacingLeft=4;spacingRight=4;overflow=hidden;rotatable=0;points=[[0,0.5],[1,0.5]];portConstraint=eastwest;rounded=0;shadow=0;html=0;" parent="zkfFHV4jXpPFQw0GAbJ--0" vertex="1">
          <mxGeometry y="52" width="180" height="26" as="geometry" />
        </mxCell>
        <mxCell id="czbP5FDpYwiBb1CVUzjl-8" value="-hand:Hand" style="text;align=left;verticalAlign=top;spacingLeft=4;spacingRight=4;overflow=hidden;rotatable=0;points=[[0,0.5],[1,0.5]];portConstraint=eastwest;rounded=0;shadow=0;html=0;" vertex="1" parent="zkfFHV4jXpPFQw0GAbJ--0">
          <mxGeometry y="78" width="180" height="26" as="geometry" />
        </mxCell>
        <mxCell id="czbP5FDpYwiBb1CVUzjl-9" value="-head:Head" style="text;align=left;verticalAlign=top;spacingLeft=4;spacingRight=4;overflow=hidden;rotatable=0;points=[[0,0.5],[1,0.5]];portConstraint=eastwest;rounded=0;shadow=0;html=0;" vertex="1" parent="zkfFHV4jXpPFQw0GAbJ--0">
          <mxGeometry y="104" width="180" height="26" as="geometry" />
        </mxCell>
        <mxCell id="czbP5FDpYwiBb1CVUzjl-10" value="-leg:Leg" style="text;align=left;verticalAlign=top;spacingLeft=4;spacingRight=4;overflow=hidden;rotatable=0;points=[[0,0.5],[1,0.5]];portConstraint=eastwest;rounded=0;shadow=0;html=0;" vertex="1" parent="zkfFHV4jXpPFQw0GAbJ--0">
          <mxGeometry y="130" width="180" height="26" as="geometry" />
        </mxCell>
        <mxCell id="zkfFHV4jXpPFQw0GAbJ--4" value="" style="line;html=1;strokeWidth=1;align=left;verticalAlign=middle;spacingTop=-1;spacingLeft=3;spacingRight=3;rotatable=0;labelPosition=right;points=[];portConstraint=eastwest;" parent="zkfFHV4jXpPFQw0GAbJ--0" vertex="1">
          <mxGeometry y="156" width="180" height="8" as="geometry" />
        </mxCell>
        <mxCell id="czbP5FDpYwiBb1CVUzjl-2" value="+getName():String" style="text;html=1;align=left;verticalAlign=middle;resizable=0;points=[];autosize=1;strokeColor=none;fillColor=none;" vertex="1" parent="zkfFHV4jXpPFQw0GAbJ--0">
          <mxGeometry y="164" width="180" height="20" as="geometry" />
        </mxCell>
        <mxCell id="czbP5FDpYwiBb1CVUzjl-3" value="+getAge():int" style="text;html=1;align=left;verticalAlign=middle;resizable=0;points=[];autosize=1;strokeColor=none;fillColor=none;" vertex="1" parent="zkfFHV4jXpPFQw0GAbJ--0">
          <mxGeometry y="184" width="180" height="20" as="geometry" />
        </mxCell>
        <mxCell id="czbP5FDpYwiBb1CVUzjl-4" value="+setAge(age:int):void" style="text;html=1;align=left;verticalAlign=middle;resizable=0;points=[];autosize=1;strokeColor=none;fillColor=none;" vertex="1" parent="zkfFHV4jXpPFQw0GAbJ--0">
          <mxGeometry y="204" width="180" height="20" as="geometry" />
        </mxCell>
        <mxCell id="czbP5FDpYwiBb1CVUzjl-5" value="+setName(name:String):void" style="text;html=1;align=left;verticalAlign=middle;resizable=0;points=[];autosize=1;strokeColor=none;fillColor=none;" vertex="1" parent="zkfFHV4jXpPFQw0GAbJ--0">
          <mxGeometry y="224" width="180" height="20" as="geometry" />
        </mxCell>
        <mxCell id="czbP5FDpYwiBb1CVUzjl-6" value="+Human(name:String,age:int)" style="text;html=1;align=left;verticalAlign=middle;resizable=0;points=[];autosize=1;strokeColor=none;fillColor=none;" vertex="1" parent="zkfFHV4jXpPFQw0GAbJ--0">
          <mxGeometry y="244" width="180" height="20" as="geometry" />
        </mxCell>
        <mxCell id="czbP5FDpYwiBb1CVUzjl-11" value="+toString():void" style="text;html=1;align=left;verticalAlign=middle;resizable=0;points=[];autosize=1;strokeColor=none;fillColor=none;" vertex="1" parent="zkfFHV4jXpPFQw0GAbJ--0">
          <mxGeometry y="264" width="180" height="20" as="geometry" />
        </mxCell>
        <mxCell id="czbP5FDpYwiBb1CVUzjl-12" value="Head" style="swimlane;fontStyle=2;align=center;verticalAlign=top;childLayout=stackLayout;horizontal=1;startSize=26;horizontalStack=0;resizeParent=1;resizeLast=0;collapsible=1;marginBottom=0;rounded=0;shadow=0;strokeWidth=1;" vertex="1" parent="WIyWlLk6GJQsqaUBKTNV-1">
          <mxGeometry x="210" width="220" height="320" as="geometry">
            <mxRectangle x="230" y="140" width="160" height="26" as="alternateBounds" />
          </mxGeometry>
        </mxCell>
        <mxCell id="czbP5FDpYwiBb1CVUzjl-13" value="-colorhair:String" style="text;align=left;verticalAlign=top;spacingLeft=4;spacingRight=4;overflow=hidden;rotatable=0;points=[[0,0.5],[1,0.5]];portConstraint=eastwest;" vertex="1" parent="czbP5FDpYwiBb1CVUzjl-12">
          <mxGeometry y="26" width="220" height="26" as="geometry" />
        </mxCell>
        <mxCell id="czbP5FDpYwiBb1CVUzjl-14" value="-coloreye:String" style="text;align=left;verticalAlign=top;spacingLeft=4;spacingRight=4;overflow=hidden;rotatable=0;points=[[0,0.5],[1,0.5]];portConstraint=eastwest;rounded=0;shadow=0;html=0;" vertex="1" parent="czbP5FDpYwiBb1CVUzjl-12">
          <mxGeometry y="52" width="220" height="26" as="geometry" />
        </mxCell>
        <mxCell id="czbP5FDpYwiBb1CVUzjl-18" value="" style="line;html=1;strokeWidth=1;align=left;verticalAlign=middle;spacingTop=-1;spacingLeft=3;spacingRight=3;rotatable=0;labelPosition=right;points=[];portConstraint=eastwest;" vertex="1" parent="czbP5FDpYwiBb1CVUzjl-12">
          <mxGeometry y="78" width="220" height="8" as="geometry" />
        </mxCell>
        <mxCell id="czbP5FDpYwiBb1CVUzjl-19" value="+getColorhair():String" style="text;html=1;align=left;verticalAlign=middle;resizable=0;points=[];autosize=1;strokeColor=none;fillColor=none;" vertex="1" parent="czbP5FDpYwiBb1CVUzjl-12">
          <mxGeometry y="86" width="220" height="20" as="geometry" />
        </mxCell>
        <mxCell id="czbP5FDpYwiBb1CVUzjl-20" value="+getColoreye():String" style="text;html=1;align=left;verticalAlign=middle;resizable=0;points=[];autosize=1;strokeColor=none;fillColor=none;" vertex="1" parent="czbP5FDpYwiBb1CVUzjl-12">
          <mxGeometry y="106" width="220" height="20" as="geometry" />
        </mxCell>
        <mxCell id="czbP5FDpYwiBb1CVUzjl-21" value="+setColorhair(ColorHair:String):void" style="text;html=1;align=left;verticalAlign=middle;resizable=0;points=[];autosize=1;strokeColor=none;fillColor=none;" vertex="1" parent="czbP5FDpYwiBb1CVUzjl-12">
          <mxGeometry y="126" width="220" height="20" as="geometry" />
        </mxCell>
        <mxCell id="czbP5FDpYwiBb1CVUzjl-22" value="+setColoreye(Coloreye:String):void" style="text;html=1;align=left;verticalAlign=middle;resizable=0;points=[];autosize=1;strokeColor=none;fillColor=none;" vertex="1" parent="czbP5FDpYwiBb1CVUzjl-12">
          <mxGeometry y="146" width="220" height="20" as="geometry" />
        </mxCell>
        <mxCell id="czbP5FDpYwiBb1CVUzjl-23" value="+Head(colorhair:String,coloreye:String)" style="text;html=1;align=left;verticalAlign=middle;resizable=0;points=[];autosize=1;strokeColor=none;fillColor=none;" vertex="1" parent="czbP5FDpYwiBb1CVUzjl-12">
          <mxGeometry y="166" width="220" height="20" as="geometry" />
        </mxCell>
        <mxCell id="czbP5FDpYwiBb1CVUzjl-24" value="+toString():void" style="text;html=1;align=left;verticalAlign=middle;resizable=0;points=[];autosize=1;strokeColor=none;fillColor=none;" vertex="1" parent="czbP5FDpYwiBb1CVUzjl-12">
          <mxGeometry y="186" width="220" height="20" as="geometry" />
        </mxCell>
        <mxCell id="czbP5FDpYwiBb1CVUzjl-51" value="Leg" style="swimlane;fontStyle=2;align=center;verticalAlign=top;childLayout=stackLayout;horizontal=1;startSize=26;horizontalStack=0;resizeParent=1;resizeLast=0;collapsible=1;marginBottom=0;rounded=0;shadow=0;strokeWidth=1;" vertex="1" parent="WIyWlLk6GJQsqaUBKTNV-1">
          <mxGeometry x="460" width="170" height="320" as="geometry">
            <mxRectangle x="230" y="140" width="160" height="26" as="alternateBounds" />
          </mxGeometry>
        </mxCell>
        <mxCell id="czbP5FDpYwiBb1CVUzjl-52" value="-color:String" style="text;align=left;verticalAlign=top;spacingLeft=4;spacingRight=4;overflow=hidden;rotatable=0;points=[[0,0.5],[1,0.5]];portConstraint=eastwest;" vertex="1" parent="czbP5FDpYwiBb1CVUzjl-51">
          <mxGeometry y="26" width="170" height="26" as="geometry" />
        </mxCell>
        <mxCell id="czbP5FDpYwiBb1CVUzjl-53" value="-count:int" style="text;align=left;verticalAlign=top;spacingLeft=4;spacingRight=4;overflow=hidden;rotatable=0;points=[[0,0.5],[1,0.5]];portConstraint=eastwest;rounded=0;shadow=0;html=0;" vertex="1" parent="czbP5FDpYwiBb1CVUzjl-51">
          <mxGeometry y="52" width="170" height="26" as="geometry" />
        </mxCell>
        <mxCell id="czbP5FDpYwiBb1CVUzjl-54" value="" style="line;html=1;strokeWidth=1;align=left;verticalAlign=middle;spacingTop=-1;spacingLeft=3;spacingRight=3;rotatable=0;labelPosition=right;points=[];portConstraint=eastwest;" vertex="1" parent="czbP5FDpYwiBb1CVUzjl-51">
          <mxGeometry y="78" width="170" height="8" as="geometry" />
        </mxCell>
        <mxCell id="czbP5FDpYwiBb1CVUzjl-55" value="+getColor():String" style="text;html=1;align=left;verticalAlign=middle;resizable=0;points=[];autosize=1;strokeColor=none;fillColor=none;" vertex="1" parent="czbP5FDpYwiBb1CVUzjl-51">
          <mxGeometry y="86" width="170" height="20" as="geometry" />
        </mxCell>
        <mxCell id="czbP5FDpYwiBb1CVUzjl-56" value="+getCount():int" style="text;html=1;align=left;verticalAlign=middle;resizable=0;points=[];autosize=1;strokeColor=none;fillColor=none;" vertex="1" parent="czbP5FDpYwiBb1CVUzjl-51">
          <mxGeometry y="106" width="170" height="20" as="geometry" />
        </mxCell>
        <mxCell id="czbP5FDpYwiBb1CVUzjl-57" value="+setColor(color:String):void" style="text;html=1;align=left;verticalAlign=middle;resizable=0;points=[];autosize=1;strokeColor=none;fillColor=none;" vertex="1" parent="czbP5FDpYwiBb1CVUzjl-51">
          <mxGeometry y="126" width="170" height="20" as="geometry" />
        </mxCell>
        <mxCell id="czbP5FDpYwiBb1CVUzjl-58" value="+setColoreye(count:int):void" style="text;html=1;align=left;verticalAlign=middle;resizable=0;points=[];autosize=1;strokeColor=none;fillColor=none;" vertex="1" parent="czbP5FDpYwiBb1CVUzjl-51">
          <mxGeometry y="146" width="170" height="20" as="geometry" />
        </mxCell>
        <mxCell id="czbP5FDpYwiBb1CVUzjl-59" value="+Leg(color:String,count:int)" style="text;html=1;align=left;verticalAlign=middle;resizable=0;points=[];autosize=1;strokeColor=none;fillColor=none;" vertex="1" parent="czbP5FDpYwiBb1CVUzjl-51">
          <mxGeometry y="166" width="170" height="20" as="geometry" />
        </mxCell>
        <mxCell id="czbP5FDpYwiBb1CVUzjl-60" value="+toString():void" style="text;html=1;align=left;verticalAlign=middle;resizable=0;points=[];autosize=1;strokeColor=none;fillColor=none;" vertex="1" parent="czbP5FDpYwiBb1CVUzjl-51">
          <mxGeometry y="186" width="170" height="20" as="geometry" />
        </mxCell>
        <mxCell id="czbP5FDpYwiBb1CVUzjl-61" value="Hand" style="swimlane;fontStyle=2;align=center;verticalAlign=top;childLayout=stackLayout;horizontal=1;startSize=26;horizontalStack=0;resizeParent=1;resizeLast=0;collapsible=1;marginBottom=0;rounded=0;shadow=0;strokeWidth=1;" vertex="1" parent="WIyWlLk6GJQsqaUBKTNV-1">
          <mxGeometry x="657" width="170" height="320" as="geometry">
            <mxRectangle x="230" y="140" width="160" height="26" as="alternateBounds" />
          </mxGeometry>
        </mxCell>
        <mxCell id="czbP5FDpYwiBb1CVUzjl-62" value="-nail:String" style="text;align=left;verticalAlign=top;spacingLeft=4;spacingRight=4;overflow=hidden;rotatable=0;points=[[0,0.5],[1,0.5]];portConstraint=eastwest;" vertex="1" parent="czbP5FDpYwiBb1CVUzjl-61">
          <mxGeometry y="26" width="170" height="26" as="geometry" />
        </mxCell>
        <mxCell id="czbP5FDpYwiBb1CVUzjl-64" value="" style="line;html=1;strokeWidth=1;align=left;verticalAlign=middle;spacingTop=-1;spacingLeft=3;spacingRight=3;rotatable=0;labelPosition=right;points=[];portConstraint=eastwest;" vertex="1" parent="czbP5FDpYwiBb1CVUzjl-61">
          <mxGeometry y="52" width="170" height="8" as="geometry" />
        </mxCell>
        <mxCell id="czbP5FDpYwiBb1CVUzjl-65" value="+getNail():String" style="text;html=1;align=left;verticalAlign=middle;resizable=0;points=[];autosize=1;strokeColor=none;fillColor=none;" vertex="1" parent="czbP5FDpYwiBb1CVUzjl-61">
          <mxGeometry y="60" width="170" height="20" as="geometry" />
        </mxCell>
        <mxCell id="czbP5FDpYwiBb1CVUzjl-67" value="+setNail(nail:String):void" style="text;html=1;align=left;verticalAlign=middle;resizable=0;points=[];autosize=1;strokeColor=none;fillColor=none;" vertex="1" parent="czbP5FDpYwiBb1CVUzjl-61">
          <mxGeometry y="80" width="170" height="20" as="geometry" />
        </mxCell>
        <mxCell id="czbP5FDpYwiBb1CVUzjl-69" value="+Hand(nail:String)" style="text;html=1;align=left;verticalAlign=middle;resizable=0;points=[];autosize=1;strokeColor=none;fillColor=none;" vertex="1" parent="czbP5FDpYwiBb1CVUzjl-61">
          <mxGeometry y="100" width="170" height="20" as="geometry" />
        </mxCell>
        <mxCell id="czbP5FDpYwiBb1CVUzjl-70" value="+toString():void" style="text;html=1;align=left;verticalAlign=middle;resizable=0;points=[];autosize=1;strokeColor=none;fillColor=none;" vertex="1" parent="czbP5FDpYwiBb1CVUzjl-61">
          <mxGeometry y="120" width="170" height="20" as="geometry" />
        </mxCell>
      </root>
    </mxGraphModel>
  </diagram>
</mxfile>
